<?xml version="1.0" encoding="UTF-8"?>
<svg xmlns="http://www.w3.org/2000/svg" xmlns:xlink="http://www.w3.org/1999/xlink" width="240pt" height="240pt" viewBox="0 0 240 240" version="1.1">
<g id="surface13488281">
<path style=" stroke:none;fill-rule:nonzero;fill:rgb(82.352941%,84.313725%,87.45098%);fill-opacity:1;" d="M 235 95 L 227.5 95 C 226.5 95 225.5 95 224.5 95 C 210.5 95 202 92.5 196.5 91 C 199 82.5 206 66.5 215.5 54 L 220.5 47.5 L 212.5 46 C 207.5 45.5 203 45 198 45 C 186.5 45 175 46 168.5 48 C 168 41.5 165 29 165 15 L 165 10 L 160 10 C 147.5 10 128.5 24 120.5 30 C 112 22 92.5 4.5 80.5 4.5 L 80 5 L 75 5 L 75 10 C 75 25.5 72.5 38.5 71 45 C 63.5 44.5 48.5 45 32 41.5 L 25 40 L 26 47 C 29.5 68.5 37 84 42 92 C 34 94.5 24 100.5 10 111 L 5 115.5 L 10.5 119.5 C 18.5 125 24 129 28.5 132 C 33.5 135 33.5 137 37.5 140.5 C 26.5 150.5 17.5 156 17 156 L 10.5 160 L 17.5 164.5 L 40 177.5 C 39.5 180.5 38 185.5 36.5 197 L 35 205 C 35 205 65 200 80 190 L 160 190 C 164.5 192 180 205 194 205 L 200 205 L 198.5 199 C 196.5 190.5 195.5 185.5 195 182.5 C 202 178 222 165.5 227 155 L 230 150 L 224.5 148.5 C 219 147 211.5 143.5 207.5 140.5 C 214.5 134 225.5 120 232.5 102.5 Z M 235 95 "/>
<path style=" stroke:none;fill-rule:nonzero;fill:rgb(82.352941%,84.313725%,87.45098%);fill-opacity:1;" d="M 175 140 C 163.953125 140 155 148.953125 155 160 C 155 171.046875 163.953125 180 175 180 C 186.046875 180 195 171.046875 195 160 C 195 148.953125 186.046875 140 175 140 Z M 65 140 C 53.953125 140 45 148.953125 45 160 C 45 171.046875 53.953125 180 65 180 C 76.046875 180 85 171.046875 85 160 C 85 148.953125 76.046875 140 65 140 Z M 65 140 "/>
<path style=" stroke:none;fill-rule:nonzero;fill:rgb(82.352941%,84.313725%,87.45098%);fill-opacity:1;" d="M 120 55 C 89.5 55 65 82 65 121 L 65 168.5 C 65 208 89.5 235 120 235 C 150.5 235 175 208 175 169 L 175 121.5 C 175 82 150.5 55 120 55 Z M 120 55 "/>
<path style=" stroke:none;fill-rule:nonzero;fill:rgb(82.352941%,84.313725%,87.45098%);fill-opacity:1;" d="M 125.5 185 L 95 185 L 95 189.5 C 95 195.5 97.5 202 103 203 C 103.5 209 106.5 215 112.5 215 C 118.5 215 121.5 209 122.5 203 C 126 202 130 198.5 130 189.5 L 130 185 Z M 125.5 185 "/>
<path style=" stroke:none;fill-rule:nonzero;fill:rgb(82.352941%,84.313725%,87.45098%);fill-opacity:1;" d="M 85 195 C 83 195 81 193.5 80.5 191.5 C 79.5 189 81 186 83.5 185 C 84 185 99.5 179.5 120 179.5 C 140.5 179.5 156 184.5 156.5 185 C 159 186 160.5 188.5 159.5 191.5 C 158.5 194 156 195.5 153 194.5 C 153 194.5 138.5 190 119.5 190 C 100.5 190 86 194.5 86 194.5 C 86 195 85.5 195 85 195 Z M 85 195 "/>
<path style=" stroke:none;fill-rule:nonzero;fill:rgb(82.352941%,84.313725%,87.45098%);fill-opacity:1;" d="M 110 130 L 110 152.5 C 110 158 110.5 175 120 175 C 129.5 175 130 158 130 152.5 L 130 130 Z M 110 130 "/>
<path style=" stroke:none;fill-rule:nonzero;fill:rgb(82.352941%,84.313725%,87.45098%);fill-opacity:1;" d="M 142.5 105 C 130.074219 105 120 115.074219 120 127.5 C 120 139.925781 130.074219 150 142.5 150 C 154.925781 150 165 139.925781 165 127.5 C 165 115.074219 154.925781 105 142.5 105 Z M 142.5 105 "/>
<path style=" stroke:none;fill-rule:nonzero;fill:rgb(82.352941%,84.313725%,87.45098%);fill-opacity:1;" d="M 97.5 105 C 85.074219 105 75 115.074219 75 127.5 C 75 139.925781 85.074219 150 97.5 150 C 109.925781 150 120 139.925781 120 127.5 C 120 115.074219 109.925781 105 97.5 105 Z M 97.5 105 "/>
<path style=" stroke:none;fill-rule:nonzero;fill:rgb(82.352941%,84.313725%,87.45098%);fill-opacity:1;" d="M 145 120 C 142.238281 120 140 122.238281 140 125 C 140 127.761719 142.238281 130 145 130 C 147.761719 130 150 127.761719 150 125 C 150 122.238281 147.761719 120 145 120 Z M 95 125 C 92.238281 125 90 127.238281 90 130 C 90 132.761719 92.238281 135 95 135 C 97.761719 135 100 132.761719 100 130 C 100 127.238281 97.761719 125 95 125 Z M 95 125 "/>
<path style=" stroke:none;fill-rule:nonzero;fill:rgb(82.352941%,84.313725%,87.45098%);fill-opacity:1;" d="M 120 110 C 113 110 107 108.5 101.5 107 C 99 106.5 96 105.5 94 105.5 C 86 104.5 81 105.5 81 105.5 C 78.5 106 75.5 104.5 75 102 C 74.5 99.5 76 97 78.5 96 C 79 96 85.5 94.5 95.5 96 C 98 96.5 101 97 104 98 C 109 99.5 114 100.5 119.5 100.5 C 125 100.5 130 99 135 98 C 138 97 141 96.5 143.5 96 C 153.5 94.5 160 96 160.5 96 C 163 96.5 165 99 164 102 C 163.5 104.5 160.5 106 158 105.5 C 158 105.5 153 104.5 145 105.5 C 143 106 140.5 106.5 137.5 107 C 133 108.5 127 110 120 110 Z M 120 110 "/>
</g>
</svg>
