<svg width="182" height="52" viewBox="0 0 182 52" fill="none" xmlns="http://www.w3.org/2000/svg">
<path d="M67.543 19.9492C69.4023 19.9492 70.8281 20.3633 71.8203 21.1914C72.8125 22.0117 73.3086 23.1797 73.3086 24.6953C73.3086 25.5234 73.0781 26.2578 72.6172 26.8984C72.1562 27.5391 71.4961 28.043 70.6367 28.4102C71.5664 28.7148 72.2344 29.2109 72.6406 29.8984C73.0547 30.5859 73.2617 31.4336 73.2617 32.4414V33.8125C73.2617 34.3359 73.3281 34.7227 73.4609 34.9727C73.5938 35.2227 73.8125 35.3711 74.1172 35.418L74.6797 35.4883V37H73.4375C72.5391 37 71.8984 36.6875 71.5156 36.0625C71.1406 35.4375 70.9531 34.6797 70.9531 33.7891V32.4648C70.9531 31.5352 70.6836 30.7891 70.1445 30.2266C69.6055 29.6641 68.8828 29.3828 67.9766 29.3828H64.2734V35.1953L66.1836 35.5234V37H60.0547V35.5234L61.9648 35.1953V21.7539L60.0547 21.4258V19.9492H61.9648H67.543ZM64.2734 27.5664H67.3086C68.5977 27.5664 69.5352 27.3203 70.1211 26.8281C70.707 26.3359 71 25.6172 71 24.6719C71 23.7734 70.7188 23.0625 70.1562 22.5391C69.5938 22.0156 68.7227 21.7539 67.543 21.7539H64.2734V27.5664ZM76.5078 35.5234L78.418 35.1953V26.1367L76.5078 25.8086V24.3203H80.7266V35.1953L82.6367 35.5234V37H76.5078V35.5234ZM80.7266 21.0742H78.418V18.7188H80.7266V21.0742ZM90.1016 35.4414C90.8672 35.4414 91.5391 35.207 92.1172 34.7383C92.7031 34.2617 92.9961 33.6797 92.9961 32.9922H95.0703L95.0938 33.0625C95.1328 34.1562 94.6445 35.1289 93.6289 35.9805C92.6211 36.8242 91.4453 37.2461 90.1016 37.2461C88.2578 37.2461 86.8477 36.6445 85.8711 35.4414C84.9023 34.2383 84.418 32.7266 84.418 30.9062V30.4141C84.418 28.6094 84.9062 27.1055 85.8828 25.9023C86.8594 24.6914 88.2656 24.0859 90.1016 24.0859C91.1172 24.0859 92.0273 24.2539 92.832 24.5898C93.6445 24.9258 94.3164 25.3867 94.8477 25.9727L94.9531 28.7852H93.1133L92.6094 26.793C92.3359 26.5273 91.9844 26.3125 91.5547 26.1484C91.125 25.9844 90.6406 25.9023 90.1016 25.9023C88.8906 25.9023 88.0234 26.3398 87.5 27.2148C86.9844 28.082 86.7266 29.1484 86.7266 30.4141V30.9062C86.7266 32.2031 86.9844 33.2852 87.5 34.1523C88.0156 35.0117 88.8828 35.4414 90.1016 35.4414ZM97.0273 20.207V18.7188H101.246V29.3125H102.723L105.43 25.9609L104.27 25.8086V24.3203H109.578V25.8086L108.031 26.1133L104.691 30.0977L108.758 35.2422L110.199 35.5234V37H104.938V35.5234L106.121 35.3711L102.758 31.1523H101.246V35.1953L103.156 35.5234V37H97.0273V35.5234L98.9375 35.1953V20.5352L97.0273 20.207ZM111.945 35.5234L113.855 35.1953V26.1367L111.945 25.8086V24.3203H116.164V35.1953L118.074 35.5234V37H111.945V35.5234ZM116.164 21.0742H113.855V18.7188H116.164V21.0742ZM119.562 40.3867L121.473 40.0586V26.1367L119.562 25.8086V24.3203H123.453L123.664 25.8672C124.086 25.2891 124.598 24.8477 125.199 24.543C125.809 24.2383 126.512 24.0859 127.309 24.0859C128.879 24.0859 130.098 24.7109 130.965 25.9609C131.84 27.2031 132.277 28.8477 132.277 30.8945V31.1406C132.277 32.9688 131.84 34.4453 130.965 35.5703C130.09 36.6875 128.883 37.2461 127.344 37.2461C126.562 37.2461 125.875 37.1172 125.281 36.8594C124.695 36.5938 124.195 36.2031 123.781 35.6875V40.0586L125.691 40.3867V41.875H119.562V40.3867ZM129.957 30.8945C129.957 29.4492 129.676 28.2656 129.113 27.3438C128.551 26.4219 127.715 25.9609 126.605 25.9609C125.949 25.9609 125.387 26.1094 124.918 26.4062C124.449 26.7031 124.07 27.1094 123.781 27.625V33.8008C124.07 34.3242 124.445 34.7305 124.906 35.0195C125.375 35.3008 125.949 35.4414 126.629 35.4414C127.723 35.4414 128.551 35.043 129.113 34.2461C129.676 33.4492 129.957 32.4141 129.957 31.1406V30.8945ZM140.164 37.2461C138.398 37.2461 136.992 36.6602 135.945 35.4883C134.906 34.3086 134.387 32.7812 134.387 30.9062V30.3906C134.387 28.5859 134.922 27.0859 135.992 25.8906C137.07 24.6875 138.344 24.0859 139.812 24.0859C141.516 24.0859 142.805 24.6016 143.68 25.6328C144.562 26.6641 145.004 28.0391 145.004 29.7578V31.1992H136.777L136.742 31.2578C136.766 32.4766 137.074 33.4805 137.668 34.2695C138.262 35.0508 139.094 35.4414 140.164 35.4414C140.945 35.4414 141.629 35.332 142.215 35.1133C142.809 34.8867 143.32 34.5781 143.75 34.1875L144.652 35.6875C144.199 36.125 143.598 36.4961 142.848 36.8008C142.105 37.0977 141.211 37.2461 140.164 37.2461ZM139.812 25.9023C139.039 25.9023 138.379 26.2305 137.832 26.8867C137.285 27.5352 136.949 28.3516 136.824 29.3359L136.848 29.3945H142.695V29.0898C142.695 28.1836 142.453 27.4258 141.969 26.8164C141.484 26.207 140.766 25.9023 139.812 25.9023ZM155.832 35.4883C155.418 36.0664 154.91 36.5039 154.309 36.8008C153.715 37.0977 153.023 37.2461 152.234 37.2461C150.688 37.2461 149.477 36.6875 148.602 35.5703C147.734 34.4453 147.301 32.9688 147.301 31.1406V30.8945C147.301 28.8555 147.734 27.2109 148.602 25.9609C149.477 24.7109 150.695 24.0859 152.258 24.0859C153.008 24.0859 153.668 24.2266 154.238 24.5078C154.816 24.7812 155.309 25.1797 155.715 25.7031V20.5352L153.805 20.207V18.7188H155.715H158.023V35.1953L159.934 35.5234V37H156.02L155.832 35.4883ZM149.609 31.1406C149.609 32.4141 149.871 33.4375 150.395 34.2109C150.918 34.9844 151.727 35.3711 152.82 35.3711C153.508 35.3711 154.086 35.2148 154.555 34.9023C155.023 34.5898 155.41 34.1484 155.715 33.5781V27.6953C155.418 27.1641 155.031 26.7422 154.555 26.4297C154.078 26.1172 153.508 25.9609 152.844 25.9609C151.742 25.9609 150.926 26.418 150.395 27.332C149.871 28.2461 149.609 29.4336 149.609 30.8945V31.1406ZM161.703 35.5234L163.613 35.1953V26.1367L161.703 25.8086V24.3203H165.922V35.1953L167.832 35.5234V37H161.703V35.5234ZM165.922 21.0742H163.613V18.7188H165.922V21.0742ZM177.875 37C177.805 36.6562 177.75 36.3477 177.711 36.0742C177.672 35.8008 177.645 35.5273 177.629 35.2539C177.184 35.8242 176.625 36.3008 175.953 36.6836C175.289 37.0586 174.578 37.2461 173.82 37.2461C172.5 37.2461 171.496 36.9258 170.809 36.2852C170.121 35.6367 169.777 34.7266 169.777 33.5547C169.777 32.3516 170.262 31.4258 171.23 30.7773C172.207 30.1211 173.543 29.793 175.238 29.793H177.617V28.3164C177.617 27.5742 177.383 26.9883 176.914 26.5586C176.445 26.1211 175.793 25.9023 174.957 25.9023C174.379 25.9023 173.867 25.9766 173.422 26.125C172.984 26.2734 172.629 26.4766 172.355 26.7344L172.109 28.0703H170.328V25.6094C170.906 25.1484 171.605 24.7812 172.426 24.5078C173.246 24.2266 174.137 24.0859 175.098 24.0859C176.535 24.0859 177.699 24.4531 178.59 25.1875C179.48 25.9219 179.926 26.9727 179.926 28.3398V34.4453C179.926 34.6094 179.926 34.7695 179.926 34.9258C179.934 35.082 179.945 35.2383 179.961 35.3945L180.898 35.5234V37H177.875ZM174.16 35.3125C174.926 35.3125 175.625 35.1289 176.258 34.7617C176.891 34.3945 177.344 33.9531 177.617 33.4375V31.3516H175.156C174.211 31.3516 173.461 31.5703 172.906 32.0078C172.359 32.4453 172.086 32.9766 172.086 33.6016C172.086 34.1562 172.258 34.582 172.602 34.8789C172.945 35.168 173.465 35.3125 174.16 35.3125Z" fill="#D2D7DF"/>
<path d="M50.918 20.582H49.293C49.0742 20.582 48.8594 20.582 48.6406 20.582C45.6094 20.582 43.7656 20.043 42.5742 19.7148C43.1172 17.875 44.6328 14.4102 46.6914 11.6992L47.7734 10.293L46.043 9.96484C44.957 9.85938 43.9844 9.75 42.8984 9.75C40.4102 9.75 37.918 9.96485 36.5078 10.3984C36.3984 8.99219 35.75 6.28516 35.75 3.25V2.16797H34.668C31.957 2.16797 27.8398 5.19922 26.1094 6.5C24.2656 4.76563 20.043 0.976562 17.4414 0.976562L17.332 1.08203H16.25V2.16797C16.25 5.52344 15.707 8.33984 15.3828 9.75C13.7578 9.64062 10.5078 9.75 6.93359 8.99219L5.41797 8.66797L5.63281 10.1836C6.39063 14.8398 8.01562 18.1992 9.10156 19.9336C7.36719 20.4766 5.19922 21.7734 2.16797 24.0508L1.08203 25.0234L2.27344 25.8906C4.00781 27.082 5.19922 27.9492 6.17578 28.6016C7.25781 29.25 7.25781 29.6836 8.125 30.4414C5.74219 32.6094 3.79297 33.8008 3.68359 33.8008L2.27344 34.668L3.79297 35.6406L8.66797 38.457C8.55859 39.1094 8.23438 40.1914 7.91016 42.6836L7.58203 44.418C7.58203 44.418 14.082 43.332 17.332 41.168H34.668C35.6406 41.6016 39 44.418 42.0352 44.418H43.332L43.0078 43.1172C42.5742 41.2734 42.3594 40.1914 42.25 39.543C43.7656 38.5664 48.1016 35.8594 49.1836 33.582L49.832 32.5L48.6406 32.1758C47.4492 31.8516 45.8242 31.0898 44.957 30.4414C46.4766 29.0352 48.8594 26 50.375 22.207L50.918 20.582Z" fill="#D2D7DF"/>
<path d="M37.918 30.332C35.5234 30.332 33.582 32.2734 33.582 34.668C33.582 37.0586 35.5234 39 37.918 39C40.3086 39 42.25 37.0586 42.25 34.668C42.25 32.2734 40.3086 30.332 37.918 30.332ZM14.082 30.332C11.6914 30.332 9.75 32.2734 9.75 34.668C9.75 37.0586 11.6914 39 14.082 39C16.4766 39 18.418 37.0586 18.418 34.668C18.418 32.2734 16.4766 30.332 14.082 30.332Z" fill="#D2D7DF"/>
<path d="M26 11.918C19.3906 11.918 14.082 17.7656 14.082 26.2148V36.5078C14.082 45.0664 19.3906 50.918 26 50.918C32.6094 50.918 37.918 45.0664 37.918 36.6172V26.3242C37.918 17.7656 32.6094 11.918 26 11.918Z" fill="#D2D7DF"/>
<path d="M27.1914 40.082H20.582V41.0586C20.582 42.3594 21.125 43.7656 22.3164 43.9844C22.4258 45.2852 23.0742 46.582 24.375 46.582C25.6758 46.582 26.3242 45.2852 26.543 43.9844C27.3008 43.7656 28.168 43.0078 28.168 41.0586V40.082H27.1914Z" fill="#D2D7DF"/>
<path d="M18.418 42.25C17.9844 42.25 17.5508 41.9258 17.4414 41.4922C17.2266 40.9492 17.5508 40.3008 18.0898 40.082C18.1992 40.082 21.5586 38.8906 26 38.8906C30.4414 38.8906 33.8008 39.9766 33.9102 40.082C34.4492 40.3008 34.7734 40.8398 34.5586 41.4922C34.3398 42.0352 33.8008 42.3594 33.1484 42.1406C33.1484 42.1406 30.0078 41.168 25.8906 41.168C21.7734 41.168 18.6328 42.1406 18.6328 42.1406C18.6328 42.25 18.5234 42.25 18.418 42.25Z" fill="#D2D7DF"/>
<path d="M23.832 28.168V33.043C23.832 34.2344 23.9414 37.918 26 37.918C28.0586 37.918 28.168 34.2344 28.168 33.043V28.168H23.832Z" fill="#D2D7DF"/>
<path d="M30.875 22.75C28.1836 22.75 26 24.9336 26 27.625C26 30.3164 28.1836 32.5 30.875 32.5C33.5664 32.5 35.75 30.3164 35.75 27.625C35.75 24.9336 33.5664 22.75 30.875 22.75Z" fill="#D2D7DF"/>
<path d="M21.125 22.75C18.4336 22.75 16.25 24.9336 16.25 27.625C16.25 30.3164 18.4336 32.5 21.125 32.5C23.8164 32.5 26 30.3164 26 27.625C26 24.9336 23.8164 22.75 21.125 22.75Z" fill="#D2D7DF"/>
<path d="M31.418 26C30.8164 26 30.332 26.4844 30.332 27.082C30.332 27.6836 30.8164 28.168 31.418 28.168C32.0156 28.168 32.5 27.6836 32.5 27.082C32.5 26.4844 32.0156 26 31.418 26ZM20.582 27.082C19.9844 27.082 19.5 27.5664 19.5 28.168C19.5 28.7656 19.9844 29.25 20.582 29.25C21.1836 29.25 21.668 28.7656 21.668 28.168C21.668 27.5664 21.1836 27.082 20.582 27.082Z" fill="#D2D7DF"/>
<path d="M26 23.832C24.4844 23.832 23.1836 23.5078 21.9922 23.1836C21.4492 23.0742 20.8008 22.8594 20.3672 22.8594C18.6328 22.6406 17.5508 22.8594 17.5508 22.8594C17.0078 22.9648 16.3594 22.6406 16.25 22.1016C16.1406 21.5586 16.4648 21.0156 17.0078 20.8008C17.1172 20.8008 18.5234 20.4766 20.6914 20.8008C21.2344 20.9102 21.8828 21.0156 22.5352 21.2344C23.6172 21.5586 24.6992 21.7734 25.8906 21.7734C27.082 21.7734 28.168 21.4492 29.25 21.2344C29.8984 21.0156 30.5508 20.9102 31.0898 20.8008C33.2578 20.4766 34.668 20.8008 34.7734 20.8008C35.3164 20.9102 35.75 21.4492 35.5352 22.1016C35.4258 22.6406 34.7734 22.9648 34.2344 22.8594C34.2344 22.8594 33.1484 22.6406 31.418 22.8594C30.9844 22.9648 30.4414 23.0742 29.793 23.1836C28.8164 23.5078 27.5156 23.832 26 23.832Z" fill="#D2D7DF"/>
</svg>
