<svg width="689" height="649" viewBox="0 0 689 649" fill="none" xmlns="http://www.w3.org/2000/svg">
<g opacity="0.03">
<path d="M688.082 231.064H665.648C662.629 231.064 659.663 231.064 656.643 231.064C614.795 231.064 589.342 223.638 572.894 219.118C580.39 193.772 601.314 146.04 629.733 108.693L644.671 89.3207L620.781 84.8004C605.79 83.3475 592.362 81.8407 577.37 81.8407C543.019 81.8407 508.613 84.8004 489.146 90.7737C487.636 71.401 478.684 34.1085 478.684 -7.70423V-22.6104H463.746C426.321 -22.6104 369.482 19.1485 345.592 37.0682C320.138 13.1752 261.843 -39.0234 225.928 -39.0234L224.418 -37.5705H209.48V-22.6104C209.48 23.615 201.985 62.4142 197.509 81.8407C175.075 80.3339 130.208 81.8407 80.8646 71.401L59.941 66.9345L62.9069 87.814C73.3688 151.959 95.8024 198.238 110.794 222.131C86.8505 229.611 56.921 247.477 15.0737 278.85L0.0820312 292.25L16.5298 304.196C40.4733 320.609 56.921 332.556 70.4028 341.543C85.3405 350.476 85.3405 356.449 97.3123 366.888C64.4169 396.755 37.5073 413.168 35.9974 413.168L16.5298 425.114L37.5073 438.514L104.808 477.313C103.298 486.3 98.8223 501.206 94.3463 535.539L89.8165 559.432C89.8165 559.432 179.551 544.472 224.418 514.659H463.746C477.174 520.632 523.551 559.432 565.452 559.432H583.356L578.88 541.512C572.894 516.112 569.928 501.206 568.418 492.273C589.342 478.82 649.201 441.527 664.138 410.154L673.09 395.248L656.643 390.781C640.195 386.315 617.761 375.821 605.79 366.888C626.767 347.516 659.663 305.703 680.586 253.451L688.082 231.064Z" fill="#D2D7DF"/>
<path d="M508.613 365.382C475.556 365.382 448.754 392.127 448.754 425.114C448.754 458.048 475.556 484.793 508.613 484.793C541.616 484.793 568.418 458.048 568.418 425.114C568.418 392.127 541.616 365.382 508.613 365.382ZM179.551 365.382C146.548 365.382 119.746 392.127 119.746 425.114C119.746 458.048 146.548 484.793 179.551 484.793C212.608 484.793 239.41 458.048 239.41 425.114C239.41 392.127 212.608 365.382 179.551 365.382Z" fill="#D2D7DF"/>
<path d="M344.082 111.707C252.838 111.707 179.551 192.265 179.551 308.663V450.46C179.551 568.365 252.838 648.977 344.082 648.977C435.326 648.977 508.613 568.365 508.613 451.967V310.17C508.613 192.265 435.326 111.707 344.082 111.707Z" fill="#D2D7DF"/>
<path d="M360.53 499.699H269.285V513.152C269.285 531.072 276.781 550.445 293.229 553.458C294.739 571.378 303.691 589.244 321.648 589.244C339.606 589.244 348.558 571.378 351.578 553.458C362.04 550.445 374.012 540.005 374.012 513.152V499.699H360.53Z" fill="#D2D7DF"/>
<path d="M239.41 529.565C233.424 529.565 227.438 525.099 225.928 519.126C222.962 511.646 227.438 502.713 234.88 499.699C236.39 499.699 282.767 483.286 344.082 483.286C405.397 483.286 451.774 498.246 453.284 499.699C460.726 502.713 465.202 510.139 462.236 519.126C459.216 526.606 451.774 531.072 442.768 528.059C442.768 528.059 399.411 514.659 342.572 514.659C285.733 514.659 242.376 528.059 242.376 528.059C242.376 529.565 240.866 529.565 239.41 529.565Z" fill="#D2D7DF"/>
<path d="M314.153 335.569V402.728C314.153 419.141 315.663 469.887 344.082 469.887C372.502 469.887 374.011 419.141 374.011 402.728V335.569H314.153Z" fill="#D2D7DF"/>
<path d="M411.383 260.931C374.227 260.931 344.082 291.012 344.082 328.089C344.082 365.166 374.227 395.248 411.383 395.248C448.539 395.248 478.684 365.166 478.684 328.089C478.684 291.012 448.539 260.931 411.383 260.931Z" fill="#D2D7DF"/>
<path d="M276.781 260.931C239.626 260.931 209.48 291.012 209.48 328.089C209.48 365.166 239.626 395.248 276.781 395.248C313.937 395.248 344.082 365.166 344.082 328.089C344.082 291.012 313.937 260.931 276.781 260.931Z" fill="#D2D7DF"/>
<path d="M418.879 305.703C410.574 305.703 403.887 312.376 403.887 320.609C403.887 328.897 410.574 335.569 418.879 335.569C427.13 335.569 433.817 328.897 433.817 320.609C433.817 312.376 427.13 305.703 418.879 305.703ZM269.285 320.609C261.035 320.609 254.348 327.282 254.348 335.569C254.348 343.803 261.035 350.476 269.285 350.476C277.59 350.476 284.277 343.803 284.277 335.569C284.277 327.282 277.59 320.609 269.285 320.609Z" fill="#D2D7DF"/>
<path d="M344.082 278.837C323.158 278.837 305.201 274.37 288.753 269.904C281.257 268.397 272.305 265.437 266.319 265.437C242.376 262.424 227.438 265.437 227.438 265.437C219.942 266.89 210.99 262.424 209.48 254.998C207.97 247.518 212.446 240.038 219.942 237.078C221.452 237.078 240.866 232.611 270.795 237.078C278.291 238.585 287.243 240.038 296.249 243.051C311.187 247.518 326.124 250.477 342.572 250.477C359.02 250.477 374.011 246.011 388.949 243.051C397.901 240.038 406.907 238.585 414.349 237.078C444.278 232.611 463.746 237.078 465.202 237.078C472.698 238.585 478.684 246.011 475.718 254.998C474.208 262.424 465.202 266.89 457.76 265.437C457.76 265.437 442.768 262.424 418.879 265.437C412.893 266.89 405.397 268.397 396.445 269.904C382.963 274.37 365.006 278.837 344.082 278.837Z" fill="#D2D7DF"/>
</g>
</svg>
